<?xml version="1.0" encoding="utf-8"?>
<!-- Generator: Adobe Illustrator 19.2.0, SVG Export Plug-In . SVG Version: 6.00 Build 0)  -->
<svg version="1.1" id="Layer_1" xmlns="http://www.w3.org/2000/svg" xmlns:xlink="http://www.w3.org/1999/xlink" x="0px" y="0px"
	 viewBox="0 0 25 20" style="enable-background:new 0 0 25 20;" xml:space="preserve">
<style type="text/css">
	.st0{fill:#146FBA;}
</style>
<g id="Shape_3">
	<g>
		<path class="st0" d="M25,2.6C25,1,24,0,22.4,0C18.2,0,10,0,5.8,0C4.2,0,3.2,1,3.2,2.6c0,1.3,0,2.6,0,3.8c0,0.3-0.2,0.7-0.4,0.9
			C1.9,8.4,0.9,9.4,0,10.5c0.1,0.1,0.1,0.1,0.1,0.2c0.9,1,1.8,2,2.7,3c0.2,0.2,0.3,0.6,0.3,0.9c0,1.3,0,1.6,0,2.8
			c0,1.6,1,2.7,2.7,2.7c4.2,0,12.3,0,16.5,0c1.6,0,2.7-1,2.7-2.6C25,12.1,25,7.9,25,2.6z M23.4,17.3c0,0.8-0.3,1.1-1.1,1.1
			c-4.2,0-12.3,0-16.5,0c-0.8,0-1.1-0.3-1.1-1.1c0-1.4,0-1.9,0-3.3c0-0.4-0.1-0.8-0.4-1.1c-0.8-0.8-1.5-1.6-2.2-2.4
			c0.8-0.9,1.6-1.7,2.3-2.6c0.2-0.2,0.3-0.5,0.3-0.7c0-1.5,0-2.9,0-4.4c0-0.9,0.3-1.1,1.1-1.1c4.1,0,12.3,0,16.4,0
			c0.8,0,1.1,0.3,1.1,1.1C23.4,7.9,23.4,12.1,23.4,17.3z M11.2,14H20v-1.5h-8.8V14z M20,6h-8.8v1.5H20V6z M20,9.3h-8.8v1.5H20V9.3z
			 M8,14h1.5v-1.5H8V14z M9.5,6H8v1.5h1.5V6z M8,10.7h1.4V9.2H8V10.7z"/>
	</g>
</g>
</svg>
