<svg xmlns="http://www.w3.org/2000/svg" width="35.981" height="43.994">
    <path fill="#EBB74E" fill-rule="evenodd" d="M26.512 28.684c.002-.515.004-.074 0 0zM13.544 33C2.485 33 .576 29.286.576 29.286l-.001-.814c.002.072.008.039.02-.576.146-7.54 1.258-9.714 9.189-11.095 0 0 1.129 1.388 3.76 1.388s3.76-1.388 3.76-1.388c8.019 1.396 9.067 3.603 9.194 11.346.008.495.012.581.014.537v.602S24.603 33 13.544 33zM.575 28.472c-.002-.076-.001-.271 0 0zm12.969-12.289c-3.792 0-6.866-3.604-6.866-8.049 0-4.445 1.009-8.048 6.866-8.048 5.857 0 6.866 3.603 6.866 8.048s-3.074 8.049-6.866 8.049z"/>
</svg>
