<svg xmlns="http://www.w3.org/2000/svg" width="46.677" height="58.658">
    <path fill="#F4516C" fill-rule="evenodd" d="M34.497 38.335c.002-.676.005-.097 0 0zM17.425 44C2.867 44 .354 39.125.354 39.125c0-.567-.001-.892-.002-1.068.003.094.01.052.026-.756.192-9.897 1.656-12.75 12.097-14.563 0 0 1.487 1.822 4.95 1.822 3.464 0 4.95-1.822 4.95-1.822 10.556 1.833 11.936 4.729 12.103 14.893.011.65.016.762.019.704v.79S31.983 44 17.425 44zM.352 38.057c-.003-.1-.001-.355 0 0zm17.073-16.129c-4.992 0-9.039-4.73-9.039-10.564C8.386 5.529 9.715.8 17.425.8s9.039 4.729 9.039 10.564c0 5.834-4.047 10.564-9.039 10.564z"/>
</svg>
