<svg xmlns="http://www.w3.org/2000/svg" width="41.348" height="60.019">
    <path fill="#F4516C" fill-rule="evenodd" d="M15.723 45C6.223 45 .446 41.538.446 41.538v-7.124c0-3.438 2.903-7.363 7.066-9.078.893 1.53 1.917 2.82 3.277 3.531 2.818 1.468 4.903 2.642 4.903 2.642l.008-.008v-.023l.023.016.023-.016v.023l.008.008s2.093-1.19 4.904-2.642c1.359-.711 2.39-2.001 3.276-3.531C28.09 27.051 31 30.984 31 34.414v7.124S25.223 45 15.723 45zm.978-20.978c-.42.101-.84.162-1.268.162-.42 0-.825-.061-1.23-.154-2.169.131-4.155.51-5.782.262a4.113 4.113 0 0 1-1.154-.332c-1.948-.857-3.147-3.322-3.147-9.666C4.12 6.405 9.184 0 15.433 0c6.248 0 11.312 6.405 11.312 14.294 0 11.621-4.399 10.006-10.044 9.728zm8.005-13.761c-.107-.186-.298-.417-.596-.495-.061-.015-.137-.007-.214-.007a5.91 5.91 0 0 1-.848 1.074c-2.184 2.202-1.069-1.128-3.903-3.995-.771-.78-1.742-1.329-2.689-1.762a6.13 6.13 0 0 1-.282.719c.267.147.519.332.756.502.252.224.512.433.725.68.23.232.405.495.596.734.161.263.329.502.443.75.123.247.23.479.306.703.092.216.145.432.191.618.046.185.084.34.099.479.046.27.069.417.069.417s-.069-.139-.183-.378a2.334 2.334 0 0 0-.23-.418c-.099-.154-.198-.332-.336-.502a4.029 4.029 0 0 0-.45-.533c-.161-.185-.375-.348-.565-.518-.214-.146-.428-.316-.665-.44-.229-.147-.489-.24-.726-.355-.267-.086-.504-.178-.764-.225a1.453 1.453 0 0 0-.183-.03 10.14 10.14 0 0 1-1.734 1.761c-2.65 2.102-5.721 2.457-6.905.796a1.037 1.037 0 0 0-.428.425c-.298.502-.366 1.228-.183 1.955.275 1.074.985 1.715 1.543 1.792l.458.062.122.456c1.093 3.979 4.011 8.214 7.318 8.214 3.308 0 6.233-4.235 7.318-8.214l.122-.456.458-.062c.566-.069 1.268-.711 1.543-1.792.184-.727.115-1.453-.183-1.955z"/>
</svg>
