<svg xmlns="http://www.w3.org/2000/svg" width="32.013" height="46.677">
    <path fill="#EBB74E" fill-rule="evenodd" d="M12.395 35C5.179 35 .791 32.363.791 32.363v-5.428c0-2.62 2.205-5.61 5.367-6.917.679 1.165 1.456 2.148 2.489 2.69 2.141 1.119 3.725 2.013 3.725 2.013l.006-.006v-.017l.017.012.018-.012v.017l.006.006s1.589-.906 3.725-2.013c1.033-.542 1.816-1.525 2.489-2.69C21.789 21.325 24 24.321 24 26.935v5.428S19.612 35 12.395 35zm.743-15.983a4.141 4.141 0 0 1-.963.124c-.319 0-.627-.048-.934-.118-1.648.1-3.157.388-4.393.2a3.158 3.158 0 0 1-.876-.253c-1.479-.654-2.39-2.532-2.39-7.365 0-6.01 3.847-10.891 8.593-10.891s8.593 4.881 8.593 10.891c0 8.854-3.342 7.624-7.63 7.412zm6.081-10.485c-.081-.141-.226-.318-.453-.377-.046-.011-.104-.005-.162-.005a4.532 4.532 0 0 1-.644.818c-1.66 1.678-.812-.86-2.965-3.044-.586-.594-1.323-1.012-2.043-1.342a4.649 4.649 0 0 1-.214.548c.203.111.394.253.574.382.192.171.389.33.551.518.174.177.308.377.453.56.122.2.249.382.336.571.093.188.175.364.233.535.069.165.11.33.145.471.034.142.063.259.075.365.035.206.052.318.052.318l-.139-.288a1.779 1.779 0 0 0-.174-.318c-.075-.118-.151-.253-.255-.383a3.08 3.08 0 0 0-.343-.406c-.122-.141-.284-.265-.429-.395-.163-.111-.325-.241-.505-.335-.174-.112-.371-.183-.551-.271-.203-.065-.383-.135-.58-.171a1.36 1.36 0 0 0-.14-.023 7.676 7.676 0 0 1-1.317 1.342c-2.013 1.601-4.346 1.872-5.245.606a.787.787 0 0 0-.325.324c-.226.383-.278.936-.139 1.49.209.818.748 1.306 1.172 1.365l.348.047.093.348c.83 3.032 3.046 6.258 5.558 6.258 2.513 0 4.735-3.226 5.559-6.258l.093-.348.348-.047c.43-.053.963-.541 1.172-1.365.14-.554.087-1.107-.139-1.49z"/>
</svg>
