<svg xmlns="http://www.w3.org/2000/svg" width="19.994" height="26.683">
    <path fill="#95B6E2" fill-rule="evenodd" d="M13.936 8.076h-.38V6.252c0-3.373-2.613-6.191-5.878-6.252a21.123 21.123 0 0 0-.356 0C4.057.061 1.444 2.879 1.444 6.252v1.824h-.38C.478 8.076 0 8.696 0 9.461v9.149C0 19.374.478 20 1.064 20h12.872c.586 0 1.064-.626 1.064-1.39V9.461c0-.765-.478-1.385-1.064-1.385zm-5.23 5.95v2.765a.584.584 0 0 1-.568.584H6.862a.584.584 0 0 1-.568-.584v-2.765c-.3-.302-.474-.72-.474-1.183 0-.876.661-1.63 1.502-1.665.089-.003.267-.003.356 0 .841.035 1.502.789 1.502 1.665 0 .463-.174.881-.474 1.183zm2.343-5.95H3.951V6.252c0-2.009 1.593-3.671 3.549-3.671s3.549 1.662 3.549 3.671v1.824z"/>
</svg>
