<svg xmlns="http://www.w3.org/2000/svg" width="38.665" height="38.665">
    <path fill="#006FBB" fill-rule="evenodd" d="M28.908 13.753c-.062.148-.15.283-.262.394l-3.624 3.624a1.205 1.205 0 0 1-1.709 0 1.208 1.208 0 0 1 0-1.709l1.563-1.562h-6.75a1.209 1.209 0 1 1 0-2.417h6.75l-1.563-1.562a1.208 1.208 0 1 1 1.709-1.709l3.624 3.624a1.21 1.21 0 0 1 .262 1.317zm-8.366-4.086a1.208 1.208 0 0 1-1.208-1.209V2.417H9.442l4.197 1.259c.511.153.862.624.862 1.157v19.334h4.833v-6.042a1.208 1.208 0 1 1 2.417 0v7.25c0 .667-.54 1.208-1.209 1.208H14.5v1.209A1.211 1.211 0 0 1 13.292 29c-.078 0-.158-.007-.237-.024L.972 26.559A1.207 1.207 0 0 1 0 25.375V1.208c0-.024.016-.046.017-.07.001-.035-.01-.069-.004-.105C.028.932.07.842.109.75.122.717.126.681.143.649.222.498.332.371.464.267.474.26.477.247.487.239.512.22.545.219.572.202a1.208 1.208 0 0 1 .512-.179C1.126.018 1.165 0 1.208 0h19.334c.669 0 1.209.541 1.209 1.208v7.25c0 .667-.54 1.209-1.209 1.209z"/>
</svg>
