<?xml version="1.0" encoding="utf-8"?>
<!-- Generator: Adobe Illustrator 24.0.0, SVG Export Plug-In . SVG Version: 6.00 Build 0)  -->
<svg version="1.1" id="Layer_1" xmlns="http://www.w3.org/2000/svg" xmlns:xlink="http://www.w3.org/1999/xlink" x="0px" y="0px"
	 viewBox="0 0 115 50" style="enable-background:new 0 0 115 50;" xml:space="preserve">
<style type="text/css">
	.st0{fill:#006FC0;}
	.st1{fill:#FFB02E;}
</style>
<g>
	<g>
		<path class="st0" d="M109.9,1.3V2h-1.3v3.3h-0.8V2h-1.3V1.3H109.9z M114.2,5.3L114,2.9c0-0.3,0-0.7,0-1.1h0
			c-0.1,0.3-0.2,0.8-0.3,1.2l-0.7,2.2h-0.8l-0.7-2.3c-0.1-0.3-0.2-0.8-0.3-1.1h0c0,0.4,0,0.7,0,1.1l-0.1,2.3h-0.8l0.3-4h1.2l0.7,1.9
			c0.1,0.3,0.2,0.6,0.3,1h0c0.1-0.4,0.2-0.7,0.3-1l0.7-2h1.1l0.3,4H114.2z"/>
	</g>
	<g>
		<g>
			<g>
				<path class="st0" d="M20.5,32.3c-1.6,0-2.7,1.5-6.7,1.5c-4.3,0-6.7-2.3-6.7-7.4c0-5,2-7.3,5.6-7.3c2.3,0,3.4,1.1,4.4,3.1
					c0.5,1.1,1.3,1.5,2.7,1.5c1.8,0,3.2-1.2,3.2-2.9c0-0.9-0.2-1.6-0.5-2.3c-1.4-3.2-4.7-5.2-9.8-5.2C4.6,13.3,0,18.5,0,26.6
					c0,8.5,5,13.1,13.1,13.1c3.9,0,6.6-0.8,8.3-1.7c1.1-0.5,1.9-1.2,1.9-2.8C23.3,33.7,22.4,32.3,20.5,32.3z"/>
			</g>
			<g>
				<path class="st0" d="M28.3,1.2c-2.1,0-3.5,1.5-3.5,3.2v32.1c0,1.7,1.4,3.2,3.5,3.2s3.5-1.5,3.5-3.2V4.4
					C31.8,2.7,30.4,1.2,28.3,1.2z"/>
			</g>
			<g>
				<path class="st0" d="M40.3,1.5c-2.5,0-4.2,1.7-4.2,4.2c0,2.6,1.7,4.3,4.2,4.3c2.6,0,4.2-1.7,4.2-4.3C44.5,3.2,42.9,1.5,40.3,1.5
					z"/>
			</g>
			<g>
				<path class="st0" d="M40,13.3c-2.1,0-3.5,1.5-3.5,3.2v20c0,1.7,1.4,3.2,3.5,3.2c2.1,0,3.5-1.5,3.5-3.2v-20
					C43.5,14.8,42.1,13.3,40,13.3z"/>
			</g>
			<g>
				<path class="st0" d="M69.9,31.4c1.3,0,2.5,0.6,3.3,1.4v-9.6c0-6.2-2.9-10-9.5-10c-4.2,0-7.1,1.7-9,4.3l-0.2-1.4
					c-0.2-1.6-1.1-2.8-3-2.8c-1.7,0-3.1,1.3-3.1,2.9v20.3c0,1.7,1.4,3.2,3.5,3.2c2.1,0,3.5-1.5,3.5-3.2V25.1c0-3.2,2.4-5.7,5.8-5.7
					c3.4,0,4.9,1.6,4.9,5.2v8.9C66.9,32.2,68.3,31.4,69.9,31.4z"/>
			</g>
			<g>
				<path class="st0" d="M81,13.3c-2.1,0-3.5,1.5-3.5,3.2v20c0,1.7,1.4,3.2,3.5,3.2c2.1,0,3.5-1.5,3.5-3.2v-20
					C84.5,14.8,83.1,13.3,81,13.3z"/>
			</g>
			<g>
				<path class="st0" d="M81.3,1.5c-2.5,0-4.2,1.7-4.2,4.2c0,2.6,1.7,4.3,4.2,4.3c2.6,0,4.2-1.7,4.2-4.3C85.5,3.2,83.9,1.5,81.3,1.5
					z"/>
			</g>
			<g>
				<path class="st0" d="M101.3,13.3c-8.1,0-13.3,4.5-13.3,13.2c0,8.7,5.2,13.2,13.3,13.2c8.1,0,13.3-4.5,13.3-13.2
					C114.5,17.8,109.4,13.3,101.3,13.3z M101.3,33.8c-4.1,0-6.1-2.6-6.1-7.3s2.1-7.4,6.1-7.4c4,0,6.1,2.7,6.1,7.4
					S105.3,33.8,101.3,33.8z"/>
			</g>
		</g>
		<g>
			<circle class="st1" cx="69.9" cy="35.8" r="3.9"/>
		</g>
	</g>
	<g>
		<path class="st1" d="M29.5,45.7c0,1.8-1.1,3-3.2,3h-1.5c-0.2,0-0.3-0.1-0.3-0.4V43c0-0.2,0.1-0.4,0.4-0.4h1.4
			C28.4,42.6,29.5,43.9,29.5,45.7z M28.8,45.7c0-1.4-0.8-2.5-2.5-2.5h-1.1v4.9h1.1C28,48.1,28.8,47.1,28.8,45.7z"/>
		<path class="st1" d="M30.3,46.7c0-1.5,0.8-2.2,2-2.2c1.2,0,2,0.7,2,2.2c0,1.4-0.8,2.1-2,2.1C31.1,48.8,30.3,48.1,30.3,46.7z
			 M33.7,46.7c0-1.1-0.5-1.6-1.4-1.6c-0.9,0-1.4,0.6-1.4,1.6s0.5,1.6,1.4,1.6C33.2,48.3,33.7,47.7,33.7,46.7z"/>
		<path class="st1" d="M35.2,46.7c0-1.4,0.7-2.2,2-2.2c0.8,0,1.3,0.3,1.5,0.8c0.1,0.1,0.1,0.2,0.1,0.3c0,0.1-0.1,0.2-0.3,0.2
			c-0.1,0-0.2,0-0.3-0.2c-0.2-0.4-0.4-0.7-1-0.7c-0.9,0-1.3,0.6-1.3,1.6c0,1.1,0.5,1.6,1.4,1.6c0.8,0,1-0.4,1.3-0.4
			c0.2,0,0.3,0.1,0.3,0.3c0,0.1-0.1,0.2-0.1,0.2c-0.3,0.2-0.7,0.4-1.4,0.4C35.9,48.8,35.2,48.1,35.2,46.7z"/>
		<path class="st1" d="M40.4,45.1v2.6c0,0.5,0.2,0.6,0.5,0.6c0.1,0,0.2,0,0.3,0c0.2,0,0.3,0.1,0.3,0.2c0,0.1-0.1,0.2-0.2,0.3
			c-0.2,0-0.4,0.1-0.6,0.1c-0.6,0-1-0.2-1-1.1v-2.6h-0.5c-0.1,0-0.3-0.1-0.3-0.3c0-0.2,0.1-0.3,0.3-0.3h0.5v-0.9
			c0-0.2,0.1-0.3,0.3-0.3c0.2,0,0.3,0.1,0.3,0.3v0.9h1c0.1,0,0.3,0.1,0.3,0.3c0,0.2-0.1,0.3-0.3,0.3H40.4z"/>
		<path class="st1" d="M42,46.7c0-1.5,0.8-2.2,2-2.2c1.2,0,2,0.7,2,2.2c0,1.4-0.8,2.1-2,2.1C42.8,48.8,42,48.1,42,46.7z M45.5,46.7
			c0-1.1-0.5-1.6-1.4-1.6c-0.9,0-1.4,0.6-1.4,1.6s0.5,1.6,1.4,1.6C44.9,48.3,45.5,47.7,45.5,46.7z"/>
		<path class="st1" d="M49.1,44.8c0,0.3-0.1,0.3-0.3,0.3h-0.1c-0.6,0-1,0.7-1,1.4h0l0,2c0,0.2-0.1,0.3-0.3,0.3
			c-0.2,0-0.3-0.1-0.3-0.3v-3.7c0-0.2,0.1-0.3,0.3-0.3c0.2,0,0.3,0.1,0.3,0.3l0,0.6c0.2-0.5,0.6-0.9,1-0.9h0.1
			C49,44.5,49.1,44.6,49.1,44.8z"/>
		<path class="st1" d="M50.2,44.4c-0.1,0-0.2-0.1-0.2-0.2c0-0.1,0-0.1,0.1-0.2c0.1-0.2,0.2-0.3,0.2-0.5c0-0.2-0.1-0.2-0.2-0.3
			c-0.1-0.1-0.2-0.1-0.2-0.3c0-0.2,0.2-0.3,0.4-0.3c0.3,0,0.5,0.3,0.5,0.7c0,0.5-0.2,0.7-0.4,1C50.4,44.4,50.3,44.4,50.2,44.4z"/>
		<path class="st1" d="M51.8,48.5c-0.1-0.1-0.2-0.1-0.2-0.2c0-0.1,0.1-0.3,0.2-0.3c0.2,0,0.5,0.3,1.3,0.3c0.7,0,1.1-0.2,1.1-0.6
			c0-1.1-2.6-0.3-2.6-2c0-0.7,0.5-1.2,1.6-1.2c0.7,0,1.2,0.3,1.4,0.6c0.1,0.1,0.1,0.2,0.1,0.3c0,0.1-0.1,0.2-0.3,0.2
			c-0.1,0-0.2,0-0.3-0.2c-0.2-0.3-0.5-0.5-1-0.5c-0.7,0-1,0.2-1,0.6c0,1.1,2.6,0.4,2.6,1.9c0,0.7-0.5,1.2-1.7,1.2
			C52.5,48.8,52.1,48.7,51.8,48.5z"/>
		<path class="st1" d="M57.7,48.4c-0.1-0.1-0.2-0.1-0.2-0.3c0-0.2,0.1-0.3,0.3-0.3c0,0,0.1,0,0.1,0c0.2,0.1,0.7,0.4,1.6,0.4
			c1,0,1.6-0.4,1.6-1c0-1.8-3.5-0.7-3.5-3.1c0-0.9,0.7-1.6,2-1.6c0.8,0,1.5,0.3,1.8,0.8c0.1,0.1,0.1,0.3,0.1,0.3
			c0,0.2-0.1,0.3-0.3,0.3c-0.1,0-0.2-0.1-0.3-0.2c-0.2-0.3-0.4-0.7-1.3-0.7c-0.9,0-1.4,0.5-1.4,1c0,1.9,3.5,0.8,3.5,3.1
			c0,1-0.8,1.6-2.2,1.6C58.9,48.8,58.2,48.7,57.7,48.4z"/>
		<path class="st1" d="M68.7,46.1v2.3c0,0.2-0.1,0.3-0.3,0.3c-0.2,0-0.3-0.1-0.3-0.3v-2.3c0-0.7-0.3-1.2-0.9-1.2
			c-0.8,0-1.2,0.6-1.2,1.1v2.3c0,0.2-0.1,0.3-0.3,0.3c-0.2,0-0.3-0.1-0.3-0.3v-2.3c0-0.7-0.3-1.1-0.9-1.1c-0.8,0-1.2,0.6-1.2,1.1
			l0,2.3c0,0.2-0.1,0.3-0.3,0.3c-0.2,0-0.3-0.1-0.3-0.3v-3.7c0-0.2,0.1-0.3,0.3-0.3c0.2,0,0.3,0.1,0.3,0.3l0,0.5
			c0.3-0.5,0.7-0.8,1.4-0.8c0.6,0,1.1,0.3,1.3,0.9c0.2-0.5,0.7-0.9,1.5-0.9C68.2,44.5,68.7,45.1,68.7,46.1z"/>
		<path class="st1" d="M73.4,44.8v3.7c0,0.1-0.1,0.3-0.3,0.3c-0.2,0-0.3-0.1-0.3-0.3l0-0.5c-0.2,0.4-0.7,0.7-1.4,0.7
			c-1.1,0-1.8-0.7-1.8-2.1c0-1.4,0.8-2.2,1.9-2.2c0.6,0,1,0.2,1.3,0.4l0-0.1c0-0.2,0.1-0.3,0.3-0.3C73.2,44.5,73.4,44.6,73.4,44.8z
			 M72.7,47.1v-1.6c-0.2-0.2-0.6-0.4-1.1-0.4c-0.9,0-1.4,0.6-1.4,1.7c0,1.1,0.5,1.6,1.3,1.6C72.2,48.3,72.7,47.8,72.7,47.1z"/>
		<path class="st1" d="M76.6,44.8c0,0.3-0.1,0.3-0.3,0.3h-0.1c-0.6,0-1,0.7-1,1.4h0l0,2c0,0.2-0.1,0.3-0.3,0.3
			c-0.2,0-0.3-0.1-0.3-0.3v-3.7c0-0.2,0.1-0.3,0.3-0.3c0.2,0,0.3,0.1,0.3,0.3l0,0.6c0.2-0.5,0.6-0.9,1-0.9h0.1
			C76.5,44.5,76.6,44.6,76.6,44.8z"/>
		<path class="st1" d="M78,45.1v2.6c0,0.5,0.2,0.6,0.5,0.6c0.1,0,0.2,0,0.3,0c0.2,0,0.3,0.1,0.3,0.2c0,0.1-0.1,0.2-0.2,0.3
			c-0.2,0-0.4,0.1-0.6,0.1c-0.6,0-1-0.2-1-1.1v-2.6h-0.5c-0.1,0-0.3-0.1-0.3-0.3c0-0.2,0.1-0.3,0.3-0.3h0.5v-0.9
			c0-0.2,0.1-0.3,0.3-0.3c0.2,0,0.3,0.1,0.3,0.3v0.9h1c0.1,0,0.3,0.1,0.3,0.3c0,0.2-0.1,0.3-0.3,0.3H78z"/>
		<path class="st1" d="M86.7,48.5c0,0.2-0.1,0.3-0.3,0.3c-0.1,0-0.2-0.1-0.3-0.2L85.5,47h-2.9L82,48.6c-0.1,0.1-0.2,0.2-0.3,0.2
			c-0.1,0-0.3-0.1-0.3-0.3c0-0.1,0-0.1,0-0.2l2.1-5.4c0.1-0.3,0.2-0.4,0.5-0.4c0.2,0,0.4,0.1,0.5,0.4l2.1,5.4
			C86.7,48.4,86.7,48.5,86.7,48.5z M85.3,46.4l-1.2-3.2l-1.2,3.2H85.3z"/>
		<path class="st1" d="M87.2,48.5c-0.1-0.1-0.2-0.1-0.2-0.2c0-0.1,0.1-0.3,0.2-0.3c0.2,0,0.5,0.3,1.3,0.3c0.7,0,1.1-0.2,1.1-0.6
			c0-1.1-2.6-0.3-2.6-2c0-0.7,0.5-1.2,1.6-1.2c0.7,0,1.2,0.3,1.4,0.6c0.1,0.1,0.1,0.2,0.1,0.3c0,0.1-0.1,0.2-0.3,0.2
			c-0.1,0-0.2,0-0.3-0.2c-0.2-0.3-0.5-0.5-1-0.5c-0.7,0-1,0.2-1,0.6c0,1.1,2.6,0.4,2.6,1.9c0,0.7-0.5,1.2-1.7,1.2
			C87.9,48.8,87.5,48.7,87.2,48.5z"/>
		<path class="st1" d="M91,48.5c-0.1-0.1-0.2-0.1-0.2-0.2c0-0.1,0.1-0.3,0.2-0.3c0.2,0,0.5,0.3,1.3,0.3c0.7,0,1.1-0.2,1.1-0.6
			c0-1.1-2.6-0.3-2.6-2c0-0.7,0.5-1.2,1.6-1.2c0.7,0,1.2,0.3,1.4,0.6c0.1,0.1,0.1,0.2,0.1,0.3c0,0.1-0.1,0.2-0.3,0.2
			c-0.1,0-0.2,0-0.3-0.2c-0.2-0.3-0.5-0.5-1-0.5c-0.7,0-1,0.2-1,0.6c0,1.1,2.6,0.4,2.6,1.9c0,0.7-0.5,1.2-1.7,1.2
			C91.7,48.8,91.3,48.7,91,48.5z"/>
		<path class="st1" d="M94.9,43.2c0-0.2,0.2-0.5,0.4-0.5c0.3,0,0.4,0.2,0.4,0.5c0,0.3-0.2,0.5-0.4,0.5
			C95.1,43.7,94.9,43.5,94.9,43.2z M95.6,44.8v3.7c0,0.2-0.1,0.3-0.3,0.3c-0.2,0-0.3-0.1-0.3-0.3v-3.7c0-0.2,0.1-0.3,0.3-0.3
			C95.5,44.5,95.6,44.6,95.6,44.8z"/>
		<path class="st1" d="M96.8,48.5c-0.1-0.1-0.2-0.1-0.2-0.2c0-0.1,0.1-0.3,0.2-0.3c0.2,0,0.5,0.3,1.3,0.3c0.7,0,1.1-0.2,1.1-0.6
			c0-1.1-2.6-0.3-2.6-2c0-0.7,0.5-1.2,1.6-1.2c0.7,0,1.2,0.3,1.4,0.6c0.1,0.1,0.1,0.2,0.1,0.3c0,0.1-0.1,0.2-0.3,0.2
			c-0.1,0-0.2,0-0.3-0.2c-0.2-0.3-0.5-0.5-1-0.5c-0.7,0-1,0.2-1,0.6c0,1.1,2.6,0.4,2.6,1.9c0,0.7-0.5,1.2-1.7,1.2
			C97.6,48.8,97.2,48.7,96.8,48.5z"/>
		<path class="st1" d="M101.6,45.1v2.6c0,0.5,0.2,0.6,0.5,0.6c0.1,0,0.2,0,0.3,0c0.2,0,0.3,0.1,0.3,0.2c0,0.1-0.1,0.2-0.2,0.3
			c-0.2,0-0.4,0.1-0.6,0.1c-0.6,0-1-0.2-1-1.1v-2.6h-0.5c-0.1,0-0.3-0.1-0.3-0.3c0-0.2,0.1-0.3,0.3-0.3h0.5v-0.9
			c0-0.2,0.1-0.3,0.3-0.3c0.2,0,0.3,0.1,0.3,0.3v0.9h1c0.1,0,0.3,0.1,0.3,0.3c0,0.2-0.1,0.3-0.3,0.3H101.6z"/>
		<path class="st1" d="M106.9,44.8v3.7c0,0.1-0.1,0.3-0.3,0.3c-0.2,0-0.3-0.1-0.3-0.3l0-0.5c-0.2,0.4-0.7,0.7-1.4,0.7
			c-1.1,0-1.8-0.7-1.8-2.1c0-1.4,0.8-2.2,1.9-2.2c0.6,0,1,0.2,1.3,0.4l0-0.1c0-0.2,0.1-0.3,0.3-0.3
			C106.8,44.5,106.9,44.6,106.9,44.8z M106.3,47.1v-1.6c-0.2-0.2-0.6-0.4-1.1-0.4c-0.9,0-1.4,0.6-1.4,1.7c0,1.1,0.5,1.6,1.3,1.6
			C105.8,48.3,106.3,47.8,106.3,47.1z"/>
		<path class="st1" d="M111.8,46.1v2.4c0,0.2-0.1,0.3-0.3,0.3c-0.2,0-0.3-0.1-0.3-0.3v-2.3c0-0.7-0.3-1.1-1.1-1.1
			c-0.8,0-1.3,0.6-1.3,1.2h0l0,2.2c0,0.2-0.1,0.3-0.3,0.3c-0.2,0-0.3-0.1-0.3-0.3v-3.7c0-0.2,0.1-0.3,0.3-0.3c0.2,0,0.3,0.1,0.3,0.3
			l0,0.5c0.3-0.5,0.8-0.8,1.5-0.8C111.3,44.5,111.8,45.1,111.8,46.1z"/>
		<path class="st1" d="M113.7,45.1v2.6c0,0.5,0.2,0.6,0.5,0.6c0.1,0,0.2,0,0.3,0c0.2,0,0.3,0.1,0.3,0.2c0,0.1-0.1,0.2-0.2,0.3
			c-0.2,0-0.4,0.1-0.6,0.1c-0.6,0-1-0.2-1-1.1v-2.6h-0.5c-0.1,0-0.3-0.1-0.3-0.3c0-0.2,0.1-0.3,0.3-0.3h0.5v-0.9
			c0-0.2,0.1-0.3,0.3-0.3c0.2,0,0.3,0.1,0.3,0.3v0.9h1c0.1,0,0.3,0.1,0.3,0.3c0,0.2-0.1,0.3-0.3,0.3H113.7z"/>
	</g>
</g>
</svg>
