<svg xmlns="http://www.w3.org/2000/svg" width="28.006" height=".6cm">
    <path fill="#A2B5DB" fill-rule="evenodd" d="M18.432 17H2.568C1.151 17 0 15.775 0 14.268V2.732C0 1.225 1.151 0 2.568 0h15.868C19.853 0 21.004 1.229 21 2.736v11.532C21 15.775 19.848 17 18.432 17zm1.395-2.732V2.736c0-.818-.626-1.483-1.395-1.483H2.568c-.769 0-1.395.665-1.395 1.483v11.532c0 .818.626 1.484 1.395 1.484h15.868c.769 0 1.395-.666 1.395-1.484h-.004zm-1.404.181a.57.57 0 0 1-.426.194.567.567 0 0 1-.404-.171L12.37 9.193l-1.464 1.396a.562.562 0 0 1-.782.005L8.699 9.24l-5.253 5.227a.57.57 0 0 1-.4.166.583.583 0 0 1-.43-.198.655.655 0 0 1 .026-.883l5.175-5.154L2.62 3.457a.652.652 0 0 1-.048-.883.563.563 0 0 1 .83-.05l5.623 5.352a.876.876 0 0 1 .095.088c0 .005.005.009.009.014l1.382 1.312 7.082-6.762a.565.565 0 0 1 .83.047.655.655 0 0 1-.043.882l-5.136 4.9 5.157 5.209a.655.655 0 0 1 .022.883z"/>
</svg>
