<?xml version="1.0" encoding="utf-8"?>
<!-- Generator: Adobe Illustrator 19.2.0, SVG Export Plug-In . SVG Version: 6.00 Build 0)  -->
<svg version="1.1" id="Layer_1" xmlns="http://www.w3.org/2000/svg" xmlns:xlink="http://www.w3.org/1999/xlink" x="0px" y="0px"
	 viewBox="0 0 22 22" style="enable-background:new 0 0 22 22;" xml:space="preserve">
<style type="text/css">
	.st0{fill:none;enable-background:new    ;}
	.st1{fill:#A2B5DB;}
</style>
<path class="st0" d="z"/>
<path class="st1" d="M1.4,8.7C0.6,8.8,0,9.4,0,10.2l0,1.5c0,0.8,0.5,1.4,1.3,1.5l1.1,0.1c0.2,0.7,0.4,1.3,0.8,1.9l-0.7,0.9
	c-0.5,0.6-0.4,1.4,0.1,2l1.1,1.1c0.5,0.5,1.4,0.6,2,0.1l0.9-0.7c0.6,0.4,1.3,0.7,2,0.9l0.1,1.1c0.1,0.8,0.7,1.3,1.5,1.3l1.5,0
	c0.8,0,1.4-0.5,1.5-1.3l0.1-1.1c0.8-0.2,1.5-0.5,2.1-0.8l0.8,0.7c0.6,0.5,1.4,0.4,2-0.1l1.1-1.1c0.5-0.5,0.6-1.4,0.1-2l-0.6-0.8
	c0.4-0.7,0.7-1.4,0.9-2.1l1-0.1c0.8-0.1,1.3-0.7,1.3-1.5l0-1.5c0-0.8-0.5-1.4-1.3-1.5l-1-0.1c-0.2-0.7-0.5-1.4-0.8-2.1l0.6-0.7
	c0.5-0.6,0.4-1.4-0.1-2l-1.1-1.1c-0.5-0.5-1.4-0.6-2-0.1l-0.7,0.6c-0.7-0.4-1.4-0.7-2.2-0.9l-0.1-0.9C13.3,0.6,12.7,0,11.9,0l-1.5,0
	C9.7,0,9,0.5,8.9,1.3L8.8,2.2C8,2.4,7.3,2.7,6.6,3.2L5.8,2.5c-0.6-0.5-1.4-0.4-2,0.1L2.8,3.7c-0.5,0.5-0.6,1.4-0.1,2l0.6,0.8
	C2.9,7.2,2.6,7.9,2.4,8.6L1.4,8.7z M11.1,7c2.2,0,3.9,1.8,3.9,4c0,2.2-1.8,3.9-4,3.9c-2.2,0-3.9-1.8-3.9-4C7.1,8.7,8.9,7,11.1,7z"/>
</svg>
