<svg xmlns="http://www.w3.org/2000/svg" width="19.994" height="28.006">
    <path fill="#95B6E2" fill-rule="evenodd" d="M14.999 18.246c.001-.328.002-.047 0 0zM7.5 21C1.105 21 .001 18.63.001 18.63L0 18.111c.002.046.005.025.012-.368.084-4.81.727-6.197 5.314-7.079 0 0 .652.886 2.174.886 1.521 0 2.174-.886 2.174-.886 4.637.892 5.243 2.299 5.316 7.24.005.316.008.371.009.342l-.001.384S13.894 21 7.5 21zM0 18.111c-.001-.049 0-.173 0 0zm7.5-7.841c-2.193 0-3.971-2.299-3.971-5.135S4.113 0 7.5 0s3.97 2.299 3.97 5.135S9.692 10.27 7.5 10.27z"/>
</svg>
