<?xml version="1.0" encoding="utf-8"?>
<!-- Generator: Adobe Illustrator 24.0.0, SVG Export Plug-In . SVG Version: 6.00 Build 0)  -->
<svg version="1.1" id="Layer_1" xmlns="http://www.w3.org/2000/svg" xmlns:xlink="http://www.w3.org/1999/xlink" x="0px" y="0px"
	 viewBox="0 0 32 32" style="enable-background:new 0 0 32 32;" xml:space="preserve">
<style type="text/css">
	.st0{fill:#FFB02E;}
	.st1{fill:#006FC0;}
</style>
<g>
	<g>
		<circle class="st0" cx="26.1" cy="26.8" r="3.9"/>
	</g>
	<path class="st1" d="M21.5,26.8c0-1,0.3-1.9,0.8-2.7c-1.1,0.3-2.4,0.6-4.3,0.6c-5.2,0-8.1-2.7-8.1-9c0-6,2.4-8.8,6.7-8.8
		c2.7,0,4.1,1.3,5.3,3.7c0.6,1.3,1.6,1.8,3.3,1.8c2.2,0,3.9-1.4,3.9-3.6c0-1.1-0.3-2-0.6-2.7C27,2.4,22.9,0,16.8,0
		C7.1,0,1.5,6.3,1.5,16.1c0,10.3,6,15.8,15.8,15.8c2.9,0,5.2-0.4,7-0.9C22.7,30.3,21.5,28.7,21.5,26.8z"/>
</g>
</svg>
